<?xml version="1.0" standalone="no"?>
<!DOCTYPE svg PUBLIC "-//W3C//DTD SVG 20010904//EN"
 "http://www.w3.org/TR/2001/REC-SVG-20010904/DTD/svg10.dtd">
<svg version="1.0" xmlns="http://www.w3.org/2000/svg"
 width="512.000000pt" height="512.000000pt" viewBox="0 0 512.000000 512.000000"
 preserveAspectRatio="xMidYMid meet">
<metadata>
Created by potrace 1.14, written by Peter Selinger 2001-2017
</metadata>
<g transform="translate(0.000000,512.000000) scale(0.100000,-0.100000)"
fill="#000000" stroke="none">
<path d="M1611 5083 c-13 -14 -12 -18 10 -35 48 -37 99 -93 99 -109 0 -9 8
-27 18 -40 10 -13 23 -37 30 -52 7 -16 42 -75 79 -130 126 -192 170 -310 180
-482 5 -98 5 -100 -21 -124 -41 -38 -34 -68 14 -61 9 1 1 -13 -19 -33 -49 -52
-28 -90 27 -51 13 9 26 14 29 11 2 -3 -8 -12 -24 -20 -15 -9 -41 -30 -58 -47
l-30 -33 29 7 c16 4 58 20 92 36 130 61 314 103 534 121 120 10 157 10 269 -5
241 -32 414 -89 558 -185 33 -23 66 -41 72 -41 14 0 14 35 1 61 -9 16 -7 19
10 19 24 0 28 36 5 66 -23 30 -17 37 11 15 33 -26 39 -26 64 -1 28 28 25 60
-10 106 -46 61 -39 149 22 252 37 64 172 202 221 226 18 9 28 16 23 16 -9 0
61 54 104 81 28 17 73 14 49 -3 -11 -8 -10 -9 4 -4 22 7 77 -23 77 -41 0 -8
14 -13 40 -13 29 0 40 -4 40 -15 0 -8 -8 -15 -17 -15 -17 -1 -17 -1 0 -14 9
-7 17 -25 17 -40 0 -25 3 -26 49 -26 40 0 54 -5 80 -29 25 -23 31 -37 31 -70
0 -23 3 -41 8 -41 17 0 72 -60 72 -79 0 -11 5 -23 11 -27 6 -3 8 -16 4 -28
-11 -37 -15 -92 -4 -76 20 33 7 -7 -27 -77 -29 -63 -37 -73 -50 -62 -12 10
-13 9 -8 -4 15 -40 -130 -164 -221 -188 -24 -7 -74 -9 -126 -4 -52 4 -89 3
-93 -3 -5 -9 19 -47 53 -82 13 -13 14 -11 7 13 l-6 27 42 -7 c95 -15 141 -10
213 27 40 20 91 57 120 86 70 71 173 270 241 462 25 73 33 85 62 97 36 16 40
34 16 70 -15 24 -15 25 3 25 11 0 28 6 38 14 16 12 17 17 6 43 -10 26 -9 39
14 99 64 169 50 240 -57 292 -35 18 -44 19 -110 6 -39 -8 -90 -20 -112 -28
-23 -7 -66 -21 -96 -31 -85 -27 -399 -191 -476 -249 -90 -67 -211 -189 -260
-263 -63 -96 -87 -165 -82 -244 2 -38 -1 -70 -6 -72 -5 -2 -4 -13 3 -25 10
-18 9 -22 -4 -22 -24 0 -46 -26 -38 -46 6 -15 4 -15 -21 1 -20 13 -30 15 -38
7 -9 -9 -6 -18 12 -37 13 -14 21 -27 19 -29 -2 -3 -36 11 -74 30 -98 48 -291
111 -399 131 -197 36 -481 16 -697 -48 -115 -34 -109 -33 -109 -13 0 13 -7 15
-37 9 -38 -7 -38 -7 -19 14 20 22 15 56 -8 48 -11 -5 -14 16 -13 116 0 106 -3
132 -26 197 -50 147 -97 250 -167 364 -38 65 -70 121 -70 125 0 5 -18 23 -40
42 -36 30 -56 60 -30 44 17 -11 11 11 -13 46 -20 29 -29 34 -60 32 -28 -2 -37
1 -37 14 0 13 3 13 15 3 9 -7 15 -8 15 -2 0 5 -7 13 -16 16 -19 7 -16 8 -33
-11z m2969 -162 c0 -5 -7 -11 -15 -15 -15 -5 -20 5 -8 17 9 10 23 9 23 -2z
m-40 -15 c0 -3 -4 -8 -10 -11 -5 -3 -10 -1 -10 4 0 6 5 11 10 11 6 0 10 -2 10
-4z m-516 -221 c-10 -8 -23 -14 -29 -14 -5 0 -1 6 9 14 11 8 24 15 30 15 5 0
1 -7 -10 -15z m51 -6 c11 -16 1 -19 -13 -3 -7 8 -8 14 -3 14 5 0 13 -5 16 -11z
m-16 -23 c10 -12 8 -13 -8 -9 -12 3 -21 9 -21 14 0 14 16 11 29 -5z m475 -254
c2 -4 -5 -9 -17 -9 -17 -2 -19 0 -7 7 18 12 18 12 24 2z m-36 -37 c-3 -3 -9 2
-12 12 -6 14 -5 15 5 6 7 -7 10 -15 7 -18z m-68 -84 c0 -6 -4 -13 -10 -16 -5
-3 -10 1 -10 9 0 9 5 16 10 16 6 0 10 -4 10 -9z m33 -16 c-3 -9 -8 -14 -10
-11 -3 3 -2 9 2 15 9 16 15 13 8 -4z m-33 -26 c0 -5 4 -8 8 -5 10 6 9 -30 -1
-40 -4 -4 -7 -16 -7 -26 0 -11 -4 -17 -9 -13 -6 3 -6 17 1 35 7 23 7 34 -2 45
-9 11 -9 15 -1 15 6 0 11 -5 11 -11z"/>
<path d="M1490 5081 c0 -8 -7 -11 -15 -7 -8 3 -15 1 -15 -4 0 -6 -5 -9 -12 -7
-19 3 -57 -103 -76 -214 -16 -98 -18 -103 -52 -124 -66 -42 -79 -83 -30 -95
19 -5 24 -12 22 -28 -2 -13 3 -25 12 -28 10 -4 16 -18 16 -38 0 -29 15 -56 30
-56 4 0 6 39 6 86 -1 80 -3 88 -23 97 -30 13 -29 21 6 46 18 13 31 33 35 56 4
19 18 68 32 108 13 39 26 82 29 94 3 12 14 43 25 69 11 26 18 49 15 52 -3 3
-5 0 -5 -7z"/>
<path d="M1540 5082 c0 -5 11 -12 25 -14 14 -3 25 -1 25 3 0 5 -4 9 -9 9 -5 0
-16 3 -25 6 -9 3 -16 2 -16 -4z"/>
<path d="M1334 4429 c3 -34 6 -93 6 -131 0 -65 2 -70 36 -106 24 -24 34 -30
29 -17 -11 32 -24 145 -25 210 0 38 -6 69 -16 83 -27 39 -37 27 -30 -39z"/>
<path d="M1400 4055 c0 -6 18 -37 40 -70 22 -33 40 -67 40 -75 0 -8 -16 -35
-35 -59 -39 -49 -37 -65 6 -56 16 4 29 4 29 0 0 -3 -16 -29 -35 -58 -45 -67
-32 -81 33 -33 61 44 73 46 66 6 -4 -17 -1 -36 5 -44 9 -11 0 -25 -50 -72 -68
-65 -169 -183 -244 -287 -48 -67 -51 -69 -85 -63 -19 4 -62 9 -95 12 -48 5
-64 12 -82 33 -20 24 -22 25 -40 10 -12 -11 -29 -15 -50 -12 -29 5 -33 9 -33
35 0 76 -46 90 -86 27 -21 -34 -29 -40 -49 -35 -66 17 -173 26 -196 17 l-24
-10 33 -13 c22 -9 31 -17 26 -28 -8 -21 -23 -96 -30 -153 l-6 -49 -30 41 c-16
23 -33 41 -38 41 -22 0 -40 -14 -40 -31 0 -24 28 -69 44 -69 6 -1 21 -9 34
-19 24 -21 21 -46 -7 -68 -23 -18 -26 -16 -27 16 -1 16 -13 43 -27 60 l-25 30
-4 -42 c-3 -23 -3 -78 -1 -122 2 -52 -6 -132 -22 -230 -13 -82 -29 -195 -34
-250 -5 -55 -18 -125 -30 -155 -12 -30 -21 -75 -21 -100 0 -25 -7 -70 -15
-100 -12 -46 -12 -58 -1 -75 11 -16 11 -41 3 -124 -8 -74 -8 -171 1 -340 11
-228 24 -326 67 -491 8 -32 15 -92 15 -133 0 -57 4 -80 18 -98 12 -15 21 -49
25 -91 3 -37 16 -104 28 -147 l22 -80 -31 -98 c-34 -108 -72 -269 -72 -302 0
-11 6 -21 13 -22 6 0 30 -1 51 -2 l40 -2 12 65 c19 96 70 237 109 302 40 65
42 76 15 86 -17 6 -12 18 61 127 45 66 101 144 125 174 49 60 51 66 27 80 -15
8 -16 12 -6 22 20 20 16 35 -26 78 -21 22 -49 61 -61 86 -12 25 -27 45 -33 45
-7 0 -23 17 -37 38 -14 20 -27 39 -30 42 -4 3 -21 26 -40 53 -18 26 -37 47
-41 47 -4 0 -14 12 -22 28 -36 70 -47 86 -47 75 0 -7 -9 -13 -20 -13 -13 0
-20 7 -20 19 0 14 -6 17 -24 14 -14 -3 -27 -13 -29 -22 -3 -9 -5 -2 -6 14 0
17 -5 109 -11 205 -9 163 -6 231 16 356 4 20 1 36 -9 46 -13 12 -14 24 -6 58
5 23 10 59 10 79 0 20 9 74 20 121 10 47 23 137 29 200 15 170 39 287 72 359
16 36 28 75 25 87 -2 13 1 21 7 19 6 -2 25 17 41 43 36 56 103 94 180 100 80
7 118 -16 154 -92 35 -75 39 -90 51 -243 10 -123 7 -155 -24 -268 -33 -118
-49 -221 -48 -307 0 -85 14 -142 26 -108 16 47 36 134 46 200 18 126 41 234
55 256 7 11 15 31 17 45 3 22 8 24 70 29 70 5 95 18 85 44 -5 12 -21 16 -66
16 -33 0 -62 3 -65 8 -5 9 16 99 37 157 l14 40 94 0 c76 0 94 3 94 15 0 16
-62 38 -113 39 -18 1 -35 7 -38 14 -4 12 16 66 63 165 l15 32 79 0 c65 0 81 3
86 16 8 23 -20 42 -73 50 -24 3 -44 9 -44 13 0 17 212 277 292 358 89 89 91
93 78 118 -7 14 -22 25 -32 25 -13 0 -18 8 -18 30 0 35 -19 47 -50 30 l-22
-12 23 31 c18 25 20 33 9 46 -7 9 -21 13 -31 10 -24 -8 -24 -4 1 25 14 16 17
27 10 39 -13 24 -130 137 -130 126z m-673 -780 c9 -3 8 -15 -4 -44 -9 -23 -19
-41 -23 -41 -5 0 -50 84 -50 95 0 4 51 -3 77 -10z m110 -52 c6 -32 10 -59 8
-61 -1 -1 -18 1 -37 5 l-36 8 20 53 c11 28 23 52 27 52 4 0 12 -26 18 -57z
m73 10 c-1 -5 -7 -19 -15 -33 l-14 -25 -1 33 c0 22 5 32 15 32 8 0 15 -3 15
-7z m35 -91 c-7 -54 -7 -54 -26 -33 -24 25 -24 22 4 84 18 44 23 48 25 28 2
-14 1 -49 -3 -79z m-297 37 c13 -22 22 -42 20 -43 -2 -1 -15 -7 -30 -14 l-28
-12 0 55 c0 30 3 55 8 55 4 0 17 -19 30 -41z m412 12 c19 -5 52 -12 72 -16
l38 -6 -40 -79 c-35 -69 -44 -80 -66 -80 -14 0 -34 -5 -45 -10 -18 -10 -19 -6
-19 95 0 114 -1 112 60 96z m-30 -253 c0 -7 -4 -19 -9 -26 -7 -11 -10 -10 -15
3 -3 9 -4 21 0 26 8 13 24 11 24 -3z m-516 -1589 c-6 -11 -24 -2 -24 11 0 5 7
7 15 4 8 -4 12 -10 9 -15z"/>
<path d="M3823 3725 c-15 -11 -15 -17 -5 -39 16 -36 15 -43 -6 -49 -12 -2 -22
-17 -26 -38 -6 -30 -2 -38 42 -84 121 -125 165 -182 212 -274 30 -61 32 -81 5
-81 -24 0 -224 -81 -250 -102 -33 -26 -32 -48 3 -48 15 0 90 18 166 40 77 22
141 38 142 37 6 -6 64 -189 64 -201 0 -7 -52 -20 -137 -35 -185 -31 -227 -49
-189 -81 12 -9 51 -8 178 2 l163 14 12 -51 c7 -27 13 -79 15 -115 3 -60 1 -65
-17 -62 -11 1 -83 5 -160 8 -110 5 -149 3 -182 -9 l-42 -14 -31 39 c-109 135
-338 167 -551 77 -155 -65 -340 -235 -413 -379 -121 -238 19 -492 286 -517 58
-6 204 15 308 44 101 28 242 108 314 178 80 79 112 140 132 256 17 97 8 196
-22 254 -8 15 -13 30 -11 31 2 2 28 0 58 -5 30 -5 120 -17 201 -27 l147 -17 5
-51 c20 -200 25 -298 16 -316 -15 -28 -12 -56 10 -100 11 -22 20 -59 20 -85 0
-62 -37 -201 -66 -247 -25 -39 -31 -73 -14 -83 5 -3 7 -12 4 -20 -4 -8 -9 -13
-13 -11 -3 2 -7 -8 -7 -22 -3 -61 -19 -112 -63 -202 -25 -52 -47 -97 -49 -99
-1 -3 -7 0 -14 7 -21 21 -50 -26 -44 -73 3 -22 2 -31 -1 -21 -4 15 -7 16 -14
5 -6 -11 -11 -11 -20 -2 -10 10 -9 14 4 19 22 8 22 24 0 24 -20 0 -45 -44 -36
-66 5 -12 -13 -19 -39 -15 -5 0 -8 -6 -8 -14 0 -8 -4 -15 -10 -15 -5 0 -10 7
-10 15 0 8 -5 15 -10 15 -13 0 -4 -54 10 -58 5 -2 10 -11 10 -20 0 -10 -10 -3
-25 18 -14 19 -23 40 -21 47 3 7 0 15 -6 19 -6 4 -8 3 -4 -4 3 -6 1 -14 -5
-17 -6 -4 -13 2 -16 14 -3 12 -9 21 -13 21 -12 0 -30 48 -19 54 5 2 4 3 -3 1
-7 -1 -33 17 -58 40 -25 23 -70 56 -100 73 -30 17 -82 46 -114 66 -50 30 -131
65 -228 99 -11 4 -15 13 -11 26 8 29 -25 45 -182 84 -154 39 -264 57 -358 57
-61 1 -61 1 -34 16 29 16 32 21 18 43 -10 15 -7 15 -231 -9 -52 -5 -125 -19
-162 -31 -58 -18 -74 -20 -112 -10 -25 6 -99 11 -165 11 -105 0 -121 -2 -133
-18 -10 -15 -32 -20 -108 -25 -110 -8 -228 -29 -320 -58 -99 -32 -112 -38
-117 -58 -3 -12 -35 -32 -86 -56 -170 -76 -355 -221 -304 -238 9 -3 8 -8 -2
-21 -8 -9 -16 -14 -19 -11 -3 3 -12 -4 -20 -16 -8 -11 -20 -18 -28 -15 -10 4
-14 0 -12 -11 2 -9 -3 -17 -10 -19 -7 -1 -9 0 -4 2 5 3 8 21 6 42 -2 28 0 33
7 19 6 -9 18 -17 27 -17 15 0 15 2 2 10 -13 9 -13 11 0 20 11 7 9 9 -11 6 -13
-1 -31 -6 -38 -10 -10 -7 -11 -3 -6 13 8 26 -10 28 -24 4 -8 -15 -11 -15 -12
-3 -1 8 -1 21 0 29 2 7 -4 11 -11 9 -7 -3 -13 -11 -13 -19 0 -9 -8 -23 -17
-33 -22 -21 -22 -18 -4 20 7 16 20 43 27 61 7 17 16 30 19 28 3 -2 5 7 6 18 0
12 4 40 8 62 l7 40 -31 -35 c-17 -19 -47 -64 -66 -100 -19 -36 -32 -54 -28
-40 4 14 11 31 16 38 7 8 7 12 -1 12 -6 0 -11 -3 -11 -7 0 -5 -11 -16 -24 -25
-23 -16 -24 -16 -42 4 -19 20 -19 21 6 13 l25 -7 -20 20 c-11 12 -27 22 -35
24 -8 2 -26 13 -40 26 -41 37 -44 25 -3 -17 21 -21 39 -43 40 -49 4 -19 54
-63 64 -56 6 3 10 0 8 -7 -4 -30 2 -48 21 -70 17 -21 21 -22 31 -9 9 13 10 13
6 -2 -3 -9 2 -23 12 -32 10 -9 28 -37 41 -61 13 -25 26 -45 30 -45 4 0 27 19
51 43 24 23 81 77 127 120 68 65 81 81 71 93 -10 12 -8 18 7 29 45 36 156 97
244 135 52 23 104 52 115 64 41 46 237 86 423 86 118 0 124 1 129 21 6 21 9
22 123 16 64 -3 121 -2 126 2 28 26 294 75 311 57 3 -3 0 -12 -7 -21 -28 -34
-7 -42 142 -48 138 -6 235 -21 346 -53 48 -13 51 -16 37 -30 -20 -20 -3 -44
30 -44 39 0 231 -68 312 -110 216 -112 245 -137 358 -305 45 -68 112 -150 153
-190 39 -39 72 -77 72 -84 0 -14 53 -94 82 -123 33 -33 177 -350 172 -378 -4
-18 6 -41 37 -85 33 -47 42 -68 41 -98 l-1 -38 40 4 c21 2 39 8 39 13 -1 19
-14 50 -40 93 -16 26 -28 58 -28 74 1 32 -1 32 40 7 109 -64 275 -38 357 55
75 86 171 358 171 489 0 44 4 62 17 71 15 11 16 19 5 65 -7 30 -8 58 -3 68 16
31 32 211 33 357 0 133 2 145 19 150 23 8 25 41 5 111 -8 27 -17 117 -20 199
-8 202 -21 282 -58 384 -18 48 -19 61 -9 122 6 37 11 90 11 116 0 76 -41 118
-72 74 -11 -16 -22 -19 -54 -14 -40 5 -41 6 -52 63 -19 88 -60 92 -89 9 l-18
-49 -53 0 c-46 0 -54 3 -64 24 -6 14 -17 27 -24 30 -16 6 -44 -19 -44 -40 0
-11 -7 -13 -27 -7 -16 3 -55 11 -88 17 l-60 11 -12 90 c-7 49 -17 104 -22 121
-5 18 -6 35 -3 38 3 3 38 6 77 6 40 0 127 3 194 7 l122 6 -38 39 -37 38 -81
-1 c-44 0 -120 -4 -168 -7 -49 -4 -91 -4 -94 1 -3 5 -18 56 -34 115 -19 70
-25 108 -18 113 6 3 46 14 90 24 43 10 79 21 79 24 0 3 -11 19 -23 35 l-24 29
-82 -20 -83 -21 -20 46 c-33 75 -105 178 -169 242 -60 59 -71 80 -44 80 19 0
19 33 -1 71 -21 42 -14 54 18 30 26 -21 48 -27 48 -14 0 21 -50 74 -82 86 -30
12 -40 13 -55 2z m887 -1265 c0 -51 -4 -57 -29 -41 -11 7 -12 13 -4 23 6 7 13
25 17 41 10 41 16 33 16 -23z m-271 -6 c2 -2 -2 -38 -9 -79 l-13 -76 -33 32
c-33 32 -59 34 -70 5 -3 -8 1 -59 10 -113 9 -54 12 -101 7 -106 -13 -13 -31
102 -38 236 l-6 117 74 -6 c41 -4 76 -8 78 -10z m73 -78 c-16 -17 -17 -17 -20
-1 -2 9 -1 29 3 43 l7 27 13 -25 c12 -22 11 -28 -3 -44z m85 58 c13 -4 20 -10
17 -15 -9 -14 -41 -10 -48 6 -6 16 -2 18 31 9z m197 -3 c3 -4 -1 -17 -9 -27
-14 -18 -14 -18 -15 9 0 26 13 36 24 18z m75 -43 c0 -18 -3 -41 -7 -50 -7 -16
-9 -16 -31 1 l-24 18 22 32 c29 40 41 39 40 -1z m-163 -57 c41 -18 114 -77
113 -89 -3 -21 2 -32 12 -26 8 5 8 1 0 -14 -15 -29 -13 -41 3 -19 13 17 14 17
20 0 4 -10 4 -14 0 -10 -4 4 -12 0 -18 -8 -9 -12 -14 -10 -29 10 -16 23 -16
24 -1 18 14 -5 16 -3 10 13 -5 10 -9 25 -9 32 0 14 -55 57 -63 49 -2 -2 7 -12
21 -21 25 -16 35 -56 14 -56 -6 0 -9 9 -6 19 3 13 -1 21 -14 24 -11 3 -17 1
-13 -4 7 -12 -10 -11 -22 1 -6 6 -33 11 -61 11 -82 2 -148 -51 -185 -148 -29
-77 -40 -191 -20 -216 5 -7 12 -24 16 -40 6 -27 71 -97 90 -97 5 0 1 -9 -8
-19 -16 -18 -16 -20 6 -35 15 -11 18 -16 8 -17 -10 0 -8 -3 5 -9 17 -7 14 -9
-15 -10 -19 -1 -27 -4 -17 -7 9 -2 17 -8 17 -12 0 -4 12 -13 27 -20 25 -11 26
-14 10 -22 -10 -6 -26 -7 -37 -4 -11 4 -20 3 -20 0 0 -10 28 -35 39 -35 15 0
22 -16 15 -34 -8 -21 -22 -20 -26 0 -2 11 -16 18 -38 21 -19 2 -39 8 -44 13
-6 6 -14 10 -20 10 -5 0 1 -9 14 -20 26 -22 20 -27 -10 -8 -15 10 -24 9 -44
-2 -25 -13 -25 -14 -6 -27 11 -8 20 -23 20 -34 0 -16 -7 -19 -45 -19 -64 0
-55 -33 14 -46 17 -4 34 -10 36 -15 7 -11 -53 -22 -96 -17 -30 3 -33 1 -36
-26 -1 -22 1 -26 9 -18 17 17 41 15 34 -3 -3 -9 5 -20 22 -29 24 -13 25 -15 9
-22 -10 -3 -28 -1 -40 5 -23 12 -67 23 -67 16 0 -12 54 -56 75 -61 14 -3 25
-10 25 -15 0 -23 -70 5 -71 28 0 16 -1 16 -8 -2 -8 -19 -8 -19 -19 0 -7 13
-11 15 -12 6 0 -8 -3 -12 -6 -8 -9 8 27 137 37 137 5 0 9 5 9 11 0 5 -4 8 -9
4 -6 -3 -13 10 -17 30 -3 19 -12 39 -20 43 -10 6 -9 20 10 74 13 36 20 72 16
79 -5 6 -2 30 6 52 8 22 17 64 20 94 4 29 10 53 13 53 3 0 7 21 8 48 2 26 14
84 27 129 54 179 125 287 210 317 55 20 84 19 132 -3z m-316 -101 c-14 -27
-16 -25 -24 25 l-7 40 21 -21 c19 -18 20 -25 10 -44z m-70 -187 c0 -22 -2 -25
-10 -13 -13 20 -13 40 0 40 6 0 10 -12 10 -27z m313 -310 c-7 -2 -21 -2 -30 0
-10 3 -4 5 12 5 17 0 24 -2 18 -5z m17 -164 c0 -6 -4 -7 -10 -4 -5 3 -10 11
-10 16 0 6 5 7 10 4 6 -3 10 -11 10 -16z m-195 -37 c-3 -3 -11 0 -18 7 -9 10
-8 11 6 5 10 -3 15 -9 12 -12z m11 -167 c18 -14 16 -14 -16 -9 -44 8 -63 24
-29 24 14 0 34 -7 45 -15z m-299 -137 c-3 -8 -6 -5 -6 6 -1 11 2 17 5 13 3 -3
4 -12 1 -19z m-107 -23 c11 -13 10 -14 -4 -9 -10 4 -16 1 -16 -7 0 -7 -2 -10
-5 -7 -5 5 4 38 10 38 1 0 8 -7 15 -15z m195 -5 c3 -5 1 -10 -4 -10 -6 0 -11
5 -11 10 0 6 2 10 4 10 3 0 8 -4 11 -10z m-198 -52 c-3 -7 -5 -2 -5 12 0 14 2
19 5 13 2 -7 2 -19 0 -25z m-3264 7 c-3 -9 -8 -14 -10 -11 -3 3 -2 9 2 15 9
16 15 13 8 -4z m3347 -5 c0 -5 -5 -10 -11 -10 -5 0 -7 5 -4 10 3 6 8 10 11 10
2 0 4 -4 4 -10z m-3332 -45 c-3 -3 -9 2 -12 12 -6 14 -5 15 5 6 7 -7 10 -15 7
-18z m3239 -47 c-2 -13 -4 -3 -4 22 0 25 2 35 4 23 2 -13 2 -33 0 -45z m103
42 c0 -4 -8 -7 -17 -5 -10 2 -20 4 -23 4 -3 1 2 5 10 10 15 10 30 6 30 -9z
m-3280 -4 c0 -3 -4 -8 -10 -11 -5 -3 -10 -1 -10 4 0 6 5 11 10 11 6 0 10 -2
10 -4z m3471 -34 c-7 -2 -18 1 -23 6 -8 8 -4 9 13 5 13 -4 18 -8 10 -11z
m-208 -18 c4 -1 12 -2 17 -3 6 0 10 -7 10 -15 0 -12 -5 -12 -30 -3 -16 6 -30
17 -30 25 0 8 5 10 13 5 6 -4 15 -8 20 -9z m-219 -40 c5 -14 4 -15 -9 -4 -17
14 -19 20 -6 20 5 0 12 -7 15 -16z m184 -25 c31 -11 71 -22 87 -24 35 -4 85
-22 85 -31 0 -6 -42 -1 -112 11 -55 10 -158 46 -158 55 0 16 36 12 98 -11z
m372 -139 c0 -5 -7 -10 -15 -10 -8 0 -15 5 -15 10 0 6 7 10 15 10 8 0 15 -4
15 -10z"/>
<path d="M4715 2280 c-3 -5 -1 -10 4 -10 6 0 11 5 11 10 0 6 -2 10 -4 10 -3 0
-8 -4 -11 -10z"/>
<path d="M4492 1624 c10 -10 20 -15 24 -12 3 4 -5 12 -18 18 -22 12 -22 12 -6
-6z"/>
<path d="M4307 1579 c4 -13 8 -18 11 -10 2 7 -1 18 -6 23 -8 8 -9 4 -5 -13z"/>
<path d="M4290 1490 c0 -6 7 -10 15 -10 8 0 15 2 15 4 0 2 -7 6 -15 10 -8 3
-15 1 -15 -4z"/>
<path d="M3233 3580 c-73 -30 -49 -136 42 -180 139 -67 167 108 28 179 -25 13
-40 13 -70 1z"/>
<path d="M1604 3445 c-85 -51 -135 -214 -90 -291 31 -52 82 -78 164 -82 63 -4
79 -1 128 23 30 15 62 38 71 52 47 71 46 195 -3 258 -39 52 -71 65 -156 65
-60 0 -81 -5 -114 -25z m186 -17 c65 -34 83 -65 84 -142 1 -72 -15 -103 -74
-143 -26 -18 -47 -23 -99 -23 -85 0 -124 23 -152 87 -19 44 -19 49 -4 94 21
64 47 95 103 124 59 30 86 31 142 3z"/>
<path d="M1706 3341 c-9 -10 -20 -35 -23 -55 -5 -30 -1 -42 17 -61 32 -34 93
-35 114 -2 44 69 17 137 -53 137 -24 0 -44 -7 -55 -19z m47 -15 c3 -8 -1 -20
-9 -27 -12 -10 -18 -9 -31 3 -8 9 -12 21 -9 27 10 16 43 14 49 -3z"/>
<path d="M3040 3364 c-51 -22 -98 -61 -126 -105 -31 -50 -58 -152 -50 -193 10
-51 61 -123 102 -144 l37 -19 -71 -43 c-86 -51 -157 -112 -178 -152 -30 -57
-15 -51 126 53 96 71 225 130 360 165 52 13 92 15 200 10 74 -3 160 -8 190
-11 52 -6 54 -5 35 10 -40 33 -99 57 -152 62 -45 5 -53 9 -47 22 16 34 15 109
-1 166 -21 71 -73 131 -147 168 -47 24 -65 27 -148 27 -62 -1 -107 -6 -130
-16z m271 -46 c59 -35 85 -65 104 -117 22 -64 19 -120 -9 -162 -23 -34 -29
-36 -110 -48 -47 -6 -105 -19 -128 -27 -49 -18 -132 -13 -178 11 -66 34 -88
125 -56 223 19 57 60 101 120 132 61 31 194 25 257 -12z"/>
<path d="M3197 3202 c-39 -24 -70 -92 -58 -125 15 -38 49 -57 105 -57 43 0 53
4 82 36 38 39 41 61 19 109 -26 54 -93 71 -148 37z m21 -48 c3 -22 -21 -39
-39 -28 -11 6 -12 38 -2 48 13 13 38 1 41 -20z"/>
<path d="M4705 3289 c-111 -10 -307 -37 -330 -45 -21 -9 -19 -17 14 -48 l29
-27 178 47 c99 25 196 51 217 57 20 5 37 13 37 18 0 10 -2 10 -145 -2z"/>
<path d="M2110 3233 c-33 -6 -113 -34 -124 -44 -22 -19 6 -19 64 1 34 12 64
19 67 16 2 -2 -5 -7 -16 -11 -12 -3 -21 -13 -21 -22 0 -12 7 -14 28 -9 15 3
68 11 117 17 97 13 118 22 89 37 -22 11 -167 22 -204 15z"/>
<path d="M2306 3179 c-32 -5 -61 -11 -64 -14 -3 -3 38 -5 91 -5 90 0 120 9 81
24 -18 7 -29 7 -108 -5z"/>
<path d="M2382 3140 c-67 -16 -50 -37 31 -39 29 0 61 -2 72 -3 31 -5 31 30 0
42 -30 11 -55 11 -103 0z"/>
<path d="M2009 3103 c-15 -2 -34 -12 -44 -23 -37 -41 25 -145 118 -195 33 -17
41 -18 79 -6 24 7 87 19 141 26 101 13 137 31 137 65 0 44 -108 111 -209 130
-52 10 -168 11 -222 3z m65 -42 c17 -18 16 -20 -4 -26 -34 -11 -70 2 -70 25 0
27 50 27 74 1z"/>
<path d="M655 2942 c-55 -34 -61 -49 -37 -82 27 -36 29 -51 3 -22 -26 30 -38
27 -47 -10 -12 -55 -6 -127 13 -161 21 -37 93 -77 139 -77 44 0 93 37 120 90
37 72 28 160 -23 220 -50 60 -113 75 -168 42z"/>
<path d="M4654 2888 c-3 -5 7 -24 23 -43 23 -28 35 -34 70 -34 65 -1 246 20
267 31 18 10 17 12 -13 24 -28 12 -111 20 -289 27 -30 2 -56 -1 -58 -5z"/>
<path d="M2212 2206 l-30 -34 -41 20 c-32 16 -51 19 -86 14 -58 -9 -57 -22 0
-30 25 -4 58 -18 75 -32 27 -23 29 -31 29 -86 -1 -49 3 -64 20 -81 12 -12 21
-17 21 -12 0 48 33 192 49 219 40 63 13 79 -37 22z"/>
<path d="M391 1534 c0 -11 3 -14 6 -6 3 7 2 16 -1 19 -3 4 -6 -2 -5 -13z"/>
<path d="M522 1420 c7 -11 16 -20 20 -20 5 0 8 -8 9 -17 0 -10 3 -13 6 -6 2 7
-4 24 -14 37 -21 30 -39 35 -21 6z"/>
<path d="M2290 1344 c-79 -21 -150 -56 -217 -106 -72 -53 -73 -54 -73 -100 0
-28 6 -42 26 -57 38 -30 74 -26 167 15 70 31 90 35 133 31 29 -3 66 -12 82
-21 59 -31 169 -13 186 29 19 52 -11 133 -62 169 -84 57 -141 67 -242 40z
m192 -65 c40 -26 72 -81 63 -109 -9 -27 -67 -30 -118 -6 -31 15 -62 20 -117
20 -64 0 -86 -5 -147 -33 -40 -18 -79 -31 -88 -28 -44 17 18 90 114 134 129
58 227 66 293 22z"/>
<path d="M620 1340 c0 -5 5 -10 10 -10 6 0 10 5 10 10 0 6 -4 10 -10 10 -5 0
-10 -4 -10 -10z"/>
<path d="M4086 1323 c-6 -14 -5 -15 5 -6 7 7 10 15 7 18 -3 3 -9 -2 -12 -12z"/>
<path d="M3215 1260 c-51 -11 -112 -37 -148 -62 -15 -11 -43 -24 -63 -29 -40
-11 -74 -58 -74 -101 0 -36 42 -68 89 -68 35 1 48 5 160 49 67 27 96 22 152
-30 51 -47 93 -52 135 -16 59 51 21 179 -70 232 -49 29 -120 39 -181 25z m142
-65 c14 -10 20 -22 17 -33 -5 -13 -4 -14 4 -3 14 19 24 10 51 -44 21 -43 22
-47 7 -70 -16 -24 -44 -37 -30 -13 5 7 3 8 -6 3 -8 -5 -17 -2 -24 6 -23 30
-76 59 -119 65 -41 6 -107 -8 -172 -36 -11 -5 -33 -8 -50 -6 -27 2 -31 7 -26
35 2 15 114 79 166 94 66 21 154 21 182 2z"/>
<path d="M1473 1230 c-85 -20 -194 -120 -248 -227 -27 -51 -28 -58 -14 -82 15
-27 51 -38 93 -27 13 3 53 33 91 66 37 33 75 60 85 60 9 0 36 -15 60 -32 82
-60 181 -35 188 47 5 56 -4 81 -46 127 -60 67 -125 88 -209 68z m124 -71 c68
-42 95 -121 47 -139 -35 -14 -37 -13 -31 9 3 14 1 18 -9 14 -8 -3 -11 -10 -7
-16 7 -11 -8 -4 -48 26 -30 22 -87 26 -121 10 -13 -6 -31 -14 -41 -17 -11 -3
-15 -11 -11 -17 4 -8 3 -9 -5 -5 -16 10 -41 -12 -34 -30 3 -9 -2 -14 -15 -14
-11 0 -27 -3 -36 -6 -9 -3 -16 -1 -16 6 0 6 5 8 11 4 8 -4 9 1 4 17 -7 22 -7
22 10 6 23 -24 33 -12 10 13 -17 19 -16 21 47 83 36 35 80 68 99 74 47 15 103
8 146 -18z"/>
<path d="M1340 1081 c0 -6 4 -13 10 -16 6 -3 7 1 4 9 -7 18 -14 21 -14 7z"/>
<path d="M1317 1053 c-4 -3 -7 -13 -7 -21 0 -18 13 -7 16 13 2 17 1 18 -9 8z"/>
<path d="M3800 1175 c0 -5 5 -17 10 -25 9 -13 11 -13 20 0 5 8 10 20 10 25 0
6 -5 3 -10 -5 -9 -13 -11 -13 -20 0 -5 8 -10 11 -10 5z"/>
<path d="M2665 836 c-138 -44 -260 -152 -239 -213 23 -63 65 -67 175 -17 117
52 136 53 196 10 70 -50 104 -61 148 -46 19 6 40 20 45 30 35 65 -27 182 -122
231 -44 22 -141 25 -203 5z"/>
<path d="M1903 800 c-92 -33 -188 -113 -230 -194 -12 -23 -12 -33 -2 -58 27
-65 94 -53 194 37 57 51 79 55 126 20 77 -56 119 -66 172 -39 41 21 47 31 47
74 0 65 -57 129 -148 163 -54 21 -93 20 -159 -3z"/>
<path d="M3475 731 c-55 -16 -96 -34 -134 -60 -12 -8 -5 -19 35 -58 27 -27 56
-60 65 -72 13 -20 18 -22 36 -12 45 23 83 14 134 -34 44 -41 52 -45 99 -45 44
0 56 5 81 29 33 33 39 83 15 129 -15 29 -85 98 -126 126 -32 21 -126 20 -205
-3z"/>
<path d="M1240 691 c-37 -12 -85 -38 -98 -54 -10 -12 -7 -19 13 -38 14 -13 34
-41 44 -61 l19 -37 -25 16 c-14 9 -36 34 -49 55 -13 21 -29 38 -34 38 -11 0
-129 -146 -150 -185 -12 -22 -11 -30 6 -63 17 -32 25 -37 61 -40 45 -3 60 8
163 125 37 42 54 53 98 63 49 11 55 11 104 -15 55 -29 91 -29 135 0 17 12 23
25 23 54 0 82 -102 151 -220 150 -36 0 -76 -4 -90 -8z"/>
<path d="M3269 606 c-26 -57 29 -120 94 -110 20 4 37 11 37 16 0 6 -15 24 -34
42 -18 17 -39 41 -45 54 -15 29 -39 28 -52 -2z"/>
</g>
</svg>
